<?xml version="1.0" encoding="UTF-8" standalone="no"?>
<!-- Created with Inkscape (http://www.inkscape.org/) -->

<svg
   width="210mm"
   height="297mm"
   viewBox="0 0 210 297"
   version="1.1"
   id="svg1"
   xml:space="preserve"
   inkscape:version="1.3.2 (091e20e, 2023-11-25, custom)"
   sodipodi:docname="Icon.svg"
   xmlns:inkscape="http://www.inkscape.org/namespaces/inkscape"
   xmlns:sodipodi="http://sodipodi.sourceforge.net/DTD/sodipodi-0.dtd"
   xmlns="http://www.w3.org/2000/svg"
   xmlns:svg="http://www.w3.org/2000/svg"><sodipodi:namedview
     id="namedview1"
     pagecolor="#ffffff"
     bordercolor="#000000"
     borderopacity="0.25"
     inkscape:showpageshadow="2"
     inkscape:pageopacity="0.0"
     inkscape:pagecheckerboard="0"
     inkscape:deskcolor="#d1d1d1"
     inkscape:document-units="mm"
     inkscape:zoom="1.4142136"
     inkscape:cx="282.1356"
     inkscape:cy="495.3283"
     inkscape:window-width="1920"
     inkscape:window-height="1057"
     inkscape:window-x="-8"
     inkscape:window-y="-8"
     inkscape:window-maximized="1"
     inkscape:current-layer="layer1" /><defs
     id="defs1"><inkscape:path-effect
       effect="mirror_symmetry"
       start_point="0.94982371,140.99715"
       end_point="210.94997,140.99715"
       center_point="105.9499,140.99715"
       id="path-effect1"
       is_visible="true"
       lpeversion="1.2"
       lpesatellites=""
       mode="free"
       discard_orig_path="false"
       fuse_paths="false"
       oposite_fuse="false"
       split_items="false"
       split_open="false"
       link_styles="false" /></defs><g
     inkscape:label="Layer 1"
     inkscape:groupmode="layer"
     id="layer1"><rect
       style="fill:#e83c68;fill-opacity:1;stroke:none;stroke-width:0.392544;stroke-dasharray:none;stroke-opacity:1"
       id="rect1"
       width="17.088123"
       height="17.088123"
       x="149.91914"
       y="33.333763"
       transform="rotate(45)"
       ry="2.8246391" /><path
       id="path1"
       style="display:inline;opacity:1;fill:#5dd8e3;fill-opacity:1;stroke:none;stroke-width:0.265;stroke-linecap:butt;stroke-linejoin:miter;stroke-dasharray:none;stroke-opacity:1;paint-order:normal"
       d="m 73.408068,105.86524 c -0.59831,0 -1.308333,0.68816 -1.577165,1.18701 -0.33431,0.62015 -0.315454,0.93602 -0.302824,1.69705 0.03866,2.32893 2.970863,4.41857 8.117851,9.67745 5.339273,5.45533 15.217956,15.49822 20.345009,20.391 0.651141,0.62139 1.105251,1.46677 1.157551,2.84375 -10e-6,3.8e-4 2e-5,6.6e-4 0,0.001 h 28.25513 c 0,-3.9e-4 0,-6.4e-4 0,-0.001 0.005,-1.37575 0.0739,-1.94338 -0.35864,-3.14089 -0.41732,-1.15546 -0.75734,-1.77036 -1.35547,-2.35954 -6.29299,-6.19897 -20.57836,-20.28707 -26.4635,-26.01392 -1.965171,-1.91232 -3.629191,-4.28191 -5.335081,-4.28191 z" /><path
       id="path4"
       style="display:inline;opacity:1;fill:#58d662;fill-opacity:1;stroke:none;stroke-width:0.264999;stroke-linecap:butt;stroke-linejoin:miter;stroke-dasharray:none;stroke-opacity:1;paint-order:normal"
       d="m 73.408068,177.4595 c -0.59831,0 -1.308333,-0.68815 -1.577164,-1.18699 -0.334311,-0.62015 -0.315455,-0.93602 -0.302824,-1.69704 0.03866,-2.32892 2.970863,-4.41854 8.11785,-9.67738 5.339274,-5.4553 15.217956,-15.49812 20.345009,-20.39086 0.651141,-0.62138 1.105251,-1.46676 1.157551,-2.84373 -10e-6,-3.8e-4 2e-5,-6.6e-4 0,-0.001 h 28.25513 c 0,3.9e-4 0,6.4e-4 0,0.001 0.005,1.37574 0.0739,1.94337 -0.35864,3.14087 -0.41732,1.15545 -0.75734,1.77035 -1.35547,2.35952 -6.29299,6.19893 -20.57835,20.28692 -26.4635,26.01373 -1.965171,1.91231 -3.629191,4.28188 -5.335081,4.28188 z" /></g></svg>
